<?xml version="1.0" encoding="UTF-8"?>
<svg id="Layer_1" xmlns="http://www.w3.org/2000/svg" xmlns:xlink="http://www.w3.org/1999/xlink" version="1.1" viewBox="0 0 617.4 127.1">
  <defs>
    <style>
      .st0 {
      fill: #231f20;
      }
      
      .st1 {
      fill: url(#linear-gradient);
      }
      </style>
    <linearGradient id="linear-gradient" x1="125.2" y1="26.9" x2="41.3" y2="82.8" gradientUnits="userSpaceOnUse">
      <stop offset="0" stop-color="#374ca0"/>
      <stop offset="1" stop-color="#3bc6f4"/>
      </linearGradient>
    </defs>
  <path class="st1" d="M113.3,98.2l-59,28.9L0,100.4v-31.7s27.2-13.3,27.2-13.3v-26.7S86.1,0,86.1,0l27.2,13.3v31.7s-21.8,10.7-21.8,10.7l21.9,10.7v31.8ZM108.7,42.1v-21.4s-49.8,24.3-49.8,24.3v21.4c0,0,49.8-24.3,49.8-24.3ZM31.8,106.3l22.4-11,27.4-13.4v-21.4s-26.8,13.1-26.8,13.1l-23,11.2v21.5ZM59,119.6l49.7-24.3v-21.5c0,0-20.6,10-20.6,10l-29.2,14.4v21.4Z"/>
  <g>
    <path class="st0" d="M141.4,57.3v-10.4h27.3v10.4h-27.3ZM147.5,87.5v-43.8c0-2.7.6-5.2,1.8-7.4s2.8-3.9,5-5.2c2.1-1.3,4.6-1.9,7.4-1.9s3.8.3,5.5.9c1.7.6,3.2,1.4,4.5,2.4l-3.6,9.2c-.7-.4-1.3-.7-2-.9-.6-.2-1.2-.3-1.7-.3-.9,0-1.7.2-2.4.5-.6.3-1.1.8-1.4,1.5-.3.7-.4,1.5-.4,2.4v42.7h-12.7Z"/>
    <path class="st0" d="M194.1,88.3c-4.6,0-8.6-.9-12-2.8-3.4-1.9-6.1-4.4-7.9-7.6-1.9-3.2-2.8-6.9-2.8-11s.5-6.1,1.6-8.8c1-2.7,2.5-5,4.4-7,1.9-2,4.1-3.5,6.7-4.6,2.6-1.1,5.4-1.6,8.5-1.6s5.6.5,8.1,1.6c2.4,1,4.5,2.5,6.3,4.4,1.8,1.9,3.1,4.1,4.1,6.7.9,2.6,1.4,5.4,1.3,8.4v3.4h-33.3l-1.8-7.1h24.8l-1.3,1.5v-1.6c-.1-1.3-.5-2.5-1.2-3.5-.7-1-1.6-1.8-2.8-2.4-1.2-.6-2.5-.9-3.9-.9s-3.8.4-5.2,1.2c-1.4.8-2.5,2-3.3,3.5-.7,1.5-1.1,3.4-1.1,5.7s.5,4.3,1.5,6c1,1.7,2.4,3,4.2,4,1.9.9,4.1,1.4,6.6,1.4s3.4-.3,4.8-.8c1.4-.5,2.9-1.4,4.5-2.7l5.9,8.3c-1.6,1.4-3.4,2.6-5.2,3.5-1.8.9-3.7,1.6-5.6,2-1.9.4-3.8.7-5.7.7Z"/>
    <path class="st0" d="M220.4,87.5V29.3h12.6v58.2h-12.6Z"/>
    <path class="st0" d="M244.3,87.5V29.3h12.6v58.2h-12.6Z"/>
    <path class="st0" d="M287,88.3c-4.4,0-8.2-.9-11.6-2.8-3.4-1.9-6.1-4.5-8-7.7-2-3.2-2.9-7-2.9-11.2s1-7.9,2.9-11.2c2-3.3,4.6-5.8,8-7.7,3.4-1.9,7.2-2.8,11.6-2.8s8.2.9,11.6,2.8c3.4,1.9,6,4.5,8,7.7,1.9,3.3,2.9,7,2.9,11.2s-1,7.9-2.9,11.2c-1.9,3.3-4.6,5.8-8,7.7-3.4,1.9-7.2,2.8-11.6,2.8ZM287,77.5c1.9,0,3.6-.5,5-1.4,1.5-.9,2.6-2.2,3.5-3.9.8-1.6,1.2-3.5,1.2-5.6,0-2.1-.3-4-1.2-5.6-.8-1.7-2-2.9-3.5-3.9-1.5-.9-3.1-1.4-5-1.4s-3.6.5-5.1,1.4-2.7,2.2-3.5,3.9c-.8,1.7-1.2,3.5-1.2,5.6,0,2.1.3,4,1.2,5.6.8,1.6,2,2.9,3.5,3.9s3.2,1.4,5.1,1.4Z"/>
    <path class="st0" d="M325.3,87.5l-13.8-41.8h13.3l7.7,27.1-1.7-.3,8.6-21.1h7.4l9.1,21.2-1.8.2,7.7-27h13.3l-14.2,41.8h-9.3l-9-22.4.9.2-9,22.3h-9.3Z"/>
    <path class="st0" d="M406.8,88.4c-1.9,0-3.7-.3-5.4-.8-1.7-.5-3.3-1.2-4.7-2.1-1.4-.9-2.5-1.9-3.5-3.1s-1.5-2.4-1.8-3.7l2.8-.9-.7,9.7h-11.7V29.3h12.7v26.4l-2.6-.9c.3-1.4.9-2.6,1.8-3.8.9-1.2,2-2.2,3.4-3.1,1.4-.9,2.9-1.6,4.5-2.2,1.6-.5,3.3-.8,5-.8,3.6,0,6.8.9,9.6,2.8,2.8,1.9,5,4.4,6.6,7.7,1.6,3.3,2.4,7,2.4,11.2s-.8,8-2.4,11.3-3.8,5.8-6.6,7.7c-2.8,1.9-5.9,2.8-9.4,2.8ZM403.5,77.8c1.9,0,3.5-.5,5-1.4s2.5-2.2,3.3-3.9c.8-1.7,1.1-3.6,1.1-5.9s-.4-4.1-1.1-5.8c-.8-1.7-1.8-3-3.3-3.9-1.4-.9-3.1-1.3-5-1.3s-3.6.4-5,1.3c-1.4.9-2.5,2.2-3.3,3.9-.8,1.7-1.2,3.6-1.2,5.8s.4,4.2,1.2,5.9,1.9,2.9,3.3,3.9,3.1,1.4,5,1.4Z"/>
    <path class="st0" d="M433.5,87.5v-41.8h12l.6,13.6-2.4-2.6c.6-2.3,1.7-4.3,3.1-6.1,1.4-1.8,3.1-3.2,5.1-4.2,1.9-1,4-1.6,6.2-1.6s1.8,0,2.6.2c.8.2,1.6.3,2.2.6l-3.5,13.9c-.6-.4-1.3-.7-2.3-.9-1-.2-2-.4-3-.4s-2.2.2-3.2.6-1.8,1-2.5,1.7c-.7.7-1.2,1.6-1.6,2.6s-.6,2.1-.6,3.4v20.9h-12.7Z"/>
    <path class="st0" d="M476.2,37.5c-2.4,0-4.2-.6-5.5-1.7-1.3-1.1-2-2.7-2-4.8s.7-3.4,2-4.6c1.4-1.2,3.2-1.8,5.5-1.8s4.2.6,5.5,1.7c1.3,1.1,2,2.7,2,4.8s-.7,3.5-2,4.7-3.2,1.8-5.5,1.8ZM469.9,87.5v-41.8h12.6v41.8h-12.6Z"/>
    <path class="st0" d="M512.6,88.3c-4,0-7.7-.9-10.9-2.8s-5.7-4.5-7.6-7.7c-1.9-3.3-2.8-7-2.8-11.1s.9-7.9,2.8-11.1c1.9-3.3,4.4-5.9,7.6-7.7s6.8-2.8,10.9-2.8,7.1.7,10.3,2c3.1,1.3,5.6,3.1,7.4,5.5l-6.8,8.2c-.7-.8-1.6-1.6-2.6-2.4-1-.7-2.1-1.3-3.3-1.7-1.2-.4-2.5-.6-3.8-.6-2,0-3.7.5-5.3,1.4-1.5.9-2.7,2.2-3.5,3.8-.8,1.6-1.3,3.5-1.3,5.6s.4,3.8,1.3,5.4c.9,1.6,2.1,2.9,3.6,3.9,1.5.9,3.2,1.4,5.2,1.4s2.6-.2,3.8-.5c1.2-.3,2.2-.9,3.2-1.5,1-.7,1.9-1.5,2.7-2.5l6.8,8.3c-1.8,2.3-4.3,4-7.4,5.3-3.2,1.3-6.6,2-10.2,2Z"/>
    <path class="st0" d="M537.2,87.5V29.3h12.6v58.2h-12.6ZM549.3,75.3l-4.6-9.4,19.5-20h16.6l-31.5,29.5ZM565.5,87.5l-14.7-19,8.9-6.9,20.7,25.9h-14.9Z"/>
    <path class="st0" d="M600.1,88.3c-4.1,0-7.7-.7-10.8-2s-5.6-3.1-7.4-5.3l7.6-6.6c1.6,1.6,3.5,2.8,5.5,3.6,2,.8,4,1.1,5.8,1.1s1.4,0,2-.2c.6-.2,1.1-.4,1.5-.7.4-.3.7-.6.9-1,.2-.4.3-.9.3-1.4,0-1-.5-1.9-1.4-2.4-.5-.3-1.3-.6-2.4-.9-1.1-.4-2.5-.8-4.2-1.3-2.5-.6-4.6-1.4-6.4-2.2-1.8-.9-3.3-1.9-4.4-3-1-1.1-1.9-2.3-2.4-3.7-.6-1.3-.9-2.8-.9-4.5s.5-3.7,1.4-5.3c.9-1.6,2.1-2.9,3.7-4.1,1.5-1.2,3.3-2,5.3-2.6,2-.6,4.1-.9,6.3-.9s4.5.3,6.6.8c2.1.5,4,1.3,5.9,2.2s3.4,2.1,4.8,3.4l-6.6,7.4c-.9-.9-2-1.7-3.2-2.4s-2.4-1.3-3.7-1.7c-1.3-.4-2.4-.6-3.5-.6s-1.5,0-2.1.2c-.6.1-1.1.3-1.5.6-.4.3-.7.6-.9,1-.2.4-.3.9-.3,1.4s.1,1,.4,1.5c.3.5.7.9,1.2,1.2.5.3,1.4.7,2.5,1.1,1.2.4,2.7.9,4.7,1.5,2.5.7,4.6,1.4,6.4,2.3,1.8.8,3.2,1.8,4.2,3,.8.9,1.5,1.9,1.9,3.1.4,1.2.6,2.4.6,3.8,0,2.7-.7,5-2.2,7.1-1.5,2.1-3.6,3.7-6.2,4.9-2.6,1.2-5.6,1.8-9,1.8Z"/>
    </g>
  </svg>
